<svg width="30" height="30" viewBox="0 0 30 30" fill="none" xmlns="http://www.w3.org/2000/svg">
<g clip-path="url(#clip0_2_3033)">
<path d="M24.2999 25.3125H7.49988C6.98425 25.3125 6.56238 24.8906 6.56238 24.375V19.6875V7.5C6.56238 6.98437 6.98425 6.5625 7.49988 6.5625H23.4374H28.1249C28.6405 6.5625 29.0624 6.98437 29.0624 7.5V28.125C29.0624 29.0625 28.6405 29.6344 27.1321 28.125C26.6436 27.6375 25.3874 26.4 24.2999 25.3125Z" fill="#34A853"/>
<path d="M23.4375 1.875V6.5625H7.5C6.98438 6.5625 6.5625 6.98438 6.5625 7.5V19.6875H1.875C1.35938 19.6875 0.9375 19.2656 0.9375 18.75V1.875C0.9375 1.35938 1.35938 0.9375 1.875 0.9375H22.5C23.0625 0.9375 23.4375 1.35 23.4375 1.875Z" fill="#34A853"/>
<path d="M22.3828 23.4375C22.3828 23.4375 26.1909 27.1875 27.1284 28.125C28.6378 29.6334 29.0625 29.0625 29.0625 28.125V7.5C29.0625 6.98156 28.6434 6.5625 28.125 6.5625H7.5C6.98156 6.5625 6.5625 6.98156 6.5625 7.5V24.375C6.5625 24.8934 6.98156 25.3125 7.5 25.3125H20.625M12.1875 14.0625H23.4375M12.1875 17.8125H16.875M23.4375 3.75V1.875C23.4375 1.34719 23.0662 0.9375 22.5 0.9375H1.875C1.35656 0.9375 0.9375 1.35656 0.9375 1.875V18.75C0.9375 19.2684 1.35656 19.6875 1.875 19.6875H6.5625" stroke="black" stroke-width="2" stroke-linecap="round" stroke-linejoin="round"/>
</g>
<defs>
<clipPath id="clip0_2_3033">
<rect width="30" height="30" fill="white"/>
</clipPath>
</defs>
</svg>
