<svg width="30" height="30" viewBox="0 0 30 30" fill="none" xmlns="http://www.w3.org/2000/svg">
<g clip-path="url(#clip0_2_3054)">
<path d="M19.6875 11.25C19.6875 8.6625 17.5875 6.5625 15 6.5625C12.4125 6.5625 10.3125 8.6625 10.3125 11.25C10.3125 13.8375 12.4125 15.9375 15 15.9375C17.5875 15.9375 19.6875 13.8375 19.6875 11.25ZM15 0.9375C20.7 0.9375 25.3125 5.55 25.3125 11.25C25.3125 19.6875 15 29.0625 15 29.0625C15 29.0625 4.6875 19.6875 4.6875 11.25C4.6875 5.55 9.3 0.9375 15 0.9375Z" fill="#34A853"/>
<path d="M17.8125 26.25C21.5625 22.5 25.3125 16.3566 25.3125 11.25C25.3125 5.55469 20.6953 0.9375 15 0.9375C9.30469 0.9375 4.6875 5.55469 4.6875 11.25C4.6875 19.6875 15 29.0625 15 29.0625M4.6875 29.0625H25.3125M19.6875 11.25C19.6875 8.66062 17.5894 6.5625 15 6.5625C12.4106 6.5625 10.3125 8.66062 10.3125 11.25C10.3125 13.8394 12.4106 15.9375 15 15.9375C17.5894 15.9375 19.6875 13.8394 19.6875 11.25Z" stroke="black" stroke-width="2" stroke-linecap="round" stroke-linejoin="round"/>
</g>
<defs>
<clipPath id="clip0_2_3054">
<rect width="30" height="30" fill="white"/>
</clipPath>
</defs>
</svg>
