<svg width="30" height="30" viewBox="0 0 30 30" fill="none" xmlns="http://www.w3.org/2000/svg">
<g clip-path="url(#clip0_2_3100)">
<path d="M22.5 29.0625H7.5H0.9375C0.9375 29.0625 1.58438 25.6687 1.875 24.375C2.07187 23.5125 2.8125 21.5625 10.3125 20.625C10.3125 20.625 11.25 23.4375 15 23.4375C18.75 23.4375 19.6875 20.625 19.6875 20.625C27.1875 21.5625 27.9281 23.4562 28.125 24.375C28.3969 25.6687 29.0625 29.0625 29.0625 29.0625H22.5Z" fill="#34A853"/>
<path d="M21.5625 7.5H20.625H9.375H8.4375C8.4375 3.87188 11.3719 0.9375 15 0.9375C18.6281 0.9375 21.5625 3.87188 21.5625 7.5Z" fill="white"/>
<path d="M20.625 7.5V10.3125C20.625 13.9406 17.8125 16.875 15 16.875C12.1875 16.875 9.375 13.9406 9.375 10.3125V7.5H20.625Z" fill="#50B748"/>
<path d="M0.9375 29.0625C0.9375 29.0625 1.58156 25.6678 1.875 24.375C2.07 23.5153 2.8125 21.5625 10.3125 20.625C10.3125 20.625 11.25 23.4375 15 23.4375C18.75 23.4375 19.6875 20.625 19.6875 20.625C27.1875 21.5625 27.93 23.4572 28.125 24.375C28.4006 25.6725 29.0625 29.0625 29.0625 29.0625M9.375 10.3125C9.375 13.9369 12.1875 16.875 15 16.875C17.8125 16.875 20.625 13.9369 20.625 10.3125M7.5 28.125V29.0625M22.5 28.125V29.0625M5.625 7.5H21.5625C21.5625 3.87563 18.6244 0.9375 15 0.9375C11.3756 0.9375 8.4375 3.87563 8.4375 7.5" stroke="black" stroke-width="2" stroke-linecap="round" stroke-linejoin="round"/>
</g>
<defs>
<clipPath id="clip0_2_3100">
<rect width="30" height="30" fill="white"/>
</clipPath>
</defs>
</svg>
