<svg width="26" height="26" viewBox="0 0 26 26" fill="none" xmlns="http://www.w3.org/2000/svg">
<path fill-rule="evenodd" clip-rule="evenodd" d="M4.99754 9.2858L6.59809 6.08492C6.75209 5.77671 7.06424 5.57939 7.40871 5.57151C7.75278 5.56405 8.07304 5.7479 8.24029 6.04927L12.1026 13.0009L14.0609 9.73651C14.2286 9.45711 14.5308 9.2857 14.8572 9.2857H19.5001C20.0127 9.2857 20.4287 9.70169 20.4287 10.2143C20.4287 10.7269 20.0127 11.1428 19.5001 11.1428H15.3828L12.8678 15.3349C12.6968 15.6195 12.3876 15.7913 12.0562 15.7857C11.7241 15.7801 11.4211 15.5981 11.2598 15.308L7.47169 8.4901L6.40197 10.6295C6.24466 10.9442 5.92339 11.143 5.57146 11.143H0.928576C0.415991 11.143 0 10.727 0 10.2144C0 9.70179 0.415991 9.2858 0.928576 9.2858H4.99754Z" fill="#34A853"/>
<path fill-rule="evenodd" clip-rule="evenodd" d="M10.2146 0C4.57733 0 0.000244141 4.57698 0.000244141 10.2143C0.000244141 15.8517 4.57722 20.4287 10.2146 20.4287C15.8519 20.4287 20.4289 15.8517 20.4289 10.2143C20.4289 4.57698 15.8519 0 10.2146 0ZM10.2146 1.85715C14.8268 1.85715 18.5718 5.60213 18.5718 10.2143C18.5718 14.8265 14.8268 18.5715 10.2146 18.5715C5.60237 18.5715 1.8574 14.8265 1.8574 10.2143C1.8574 5.60213 5.60237 1.85715 10.2146 1.85715Z" fill="black"/>
<path fill-rule="evenodd" clip-rule="evenodd" d="M18.8433 20.1564L24.4148 25.7279C24.7773 26.0904 25.3653 26.0904 25.7281 25.7279C26.0906 25.3654 26.0906 24.7771 25.7281 24.4146L20.1566 18.8432C19.7939 18.4807 19.2058 18.4807 18.8433 18.8432C18.4806 19.2057 18.4806 19.7939 18.8433 20.1564Z" fill="black"/>
</svg>
