<svg width="30" height="30" viewBox="0 0 30 30" fill="none" xmlns="http://www.w3.org/2000/svg">
<g clip-path="url(#clip0_2_3022)">
<path d="M9.375 22.5L8.4375 18.75L7.5 15L6.5625 11.25L5.625 7.5H29.0625L27.1875 20.625C27.0562 21.6 26.3625 22.5 25.3125 22.5H9.375Z" fill="#34A853"/>
<path d="M21.5625 25.3125C22.5938 25.3125 23.4375 26.1562 23.4375 27.1875C23.4375 28.2188 22.5938 29.0625 21.5625 29.0625C20.5312 29.0625 19.6875 28.2188 19.6875 27.1875C19.6875 26.1562 20.5312 25.3125 21.5625 25.3125ZM10.3125 25.3125C11.3438 25.3125 12.1875 26.1562 12.1875 27.1875C12.1875 28.2188 11.3438 29.0625 10.3125 29.0625C9.28125 29.0625 8.4375 28.2188 8.4375 27.1875C8.4375 26.1562 9.28125 25.3125 10.3125 25.3125Z" fill="#FE724C"/>
<path d="M7.5 15H1.875M8.4375 18.75H2.8125M6.5625 11.25H0.9375M24.375 15H10.3125M23.4375 18.75H11.25M25.3125 11.25H9.375M9.375 22.5H25.3125C26.3672 22.5 27.0581 21.5981 27.1875 20.625L29.0625 7.5H5.625L3.75 0.9375H0.9375M12.1875 27.1875C12.1875 26.1525 11.3475 25.3125 10.3125 25.3125C9.2775 25.3125 8.4375 26.1525 8.4375 27.1875C8.4375 28.2225 9.2775 29.0625 10.3125 29.0625C11.3475 29.0625 12.1875 28.2225 12.1875 27.1875ZM23.4375 27.1875C23.4375 26.1525 22.5975 25.3125 21.5625 25.3125C20.5275 25.3125 19.6875 26.1525 19.6875 27.1875C19.6875 28.2225 20.5275 29.0625 21.5625 29.0625C22.5975 29.0625 23.4375 28.2225 23.4375 27.1875Z" stroke="black" stroke-width="2" stroke-linecap="round" stroke-linejoin="round"/>
</g>
<defs>
<clipPath id="clip0_2_3022">
<rect width="30" height="30" fill="white"/>
</clipPath>
</defs>
</svg>
