<svg width="30" height="30" viewBox="0 0 30 30" fill="none" xmlns="http://www.w3.org/2000/svg">
<g clip-path="url(#clip0_2_3111)">
<path d="M22.2775 18.8827C22.2775 18.8827 23.965 25.7274 24.4525 27.5921C24.9119 29.3452 23.5056 29.2984 22.6431 28.6993C21.6775 28.0234 15.0025 23.2515 15.0025 23.2515C15.0025 23.2515 8.27123 28.0609 7.3431 28.7077C6.54623 29.2609 5.06498 29.3827 5.66498 27.6118C6.09623 26.1212 8.2056 18.8827 8.2056 18.8827C8.2056 18.8827 2.04623 14.3734 1.38998 13.8671C0.733729 13.3702 0.705604 11.964 1.88685 11.8618C3.05873 11.7671 10.6337 11.1212 10.6337 11.1212C10.6337 11.1212 13.5681 2.99306 13.9619 1.914C14.3462 0.629621 15.6212 0.601496 16.1369 1.89525C16.5587 2.94525 19.8494 11.1212 19.8494 11.1212C19.8494 11.1212 27.0025 11.7577 28.0806 11.8515C29.2619 11.9265 29.3556 13.3899 28.5869 13.9806C27.8275 14.5796 22.2775 18.8827 22.2775 18.8827Z" fill="#34A853"/>
<path fill-rule="evenodd" clip-rule="evenodd" d="M16.1402 1.89524C16.5621 2.94618 19.8508 11.1221 19.8508 11.1221C19.8508 11.1221 27.0058 11.7587 28.083 11.8487C29.2633 11.9237 29.3561 13.3871 28.5902 13.9824C27.8261 14.5749 22.2761 18.8818 22.2761 18.8818C22.2761 18.8818 23.9627 25.7227 24.453 27.5865C24.9124 29.3424 23.5033 29.2956 22.6464 28.6965C21.6761 28.0206 15.0011 23.2468 15.0011 23.2468C15.0011 23.2468 8.27363 28.0571 7.34738 28.704C6.5505 29.2581 5.06269 29.379 5.66269 27.6127C6.09863 26.1221 8.208 18.8818 8.208 18.8818C8.208 18.8818 2.043 14.3706 1.38863 13.8671C0.7305 13.3646 0.709875 11.9621 1.88363 11.8618C3.05925 11.7624 10.6343 11.1221 10.6343 11.1221C10.6343 11.1221 13.5705 2.99024 13.9652 1.91493C14.3477 0.629617 15.6217 0.600555 16.1402 1.89524Z" stroke="black" stroke-width="2" stroke-linecap="round" stroke-linejoin="round"/>
</g>
<defs>
<clipPath id="clip0_2_3111">
<rect width="30" height="30" fill="white"/>
</clipPath>
</defs>
</svg>
