<svg width="30" height="30" viewBox="0 0 30 30" fill="none" xmlns="http://www.w3.org/2000/svg">
<g clip-path="url(#clip0_2_3043)">
<path d="M26.2249 5.625L27.1624 15.9375H17.7874V4.6875H25.2874C25.7842 4.6875 26.1405 4.94062 26.2249 5.625Z" fill="white"/>
<path d="M23.4124 23.4375C24.9686 23.4375 26.2249 24.6938 26.2249 26.25C26.2249 27.8063 24.9686 29.0625 23.4124 29.0625C21.8561 29.0625 20.5999 27.8063 20.5999 26.25C20.5999 24.6938 21.8561 23.4375 23.4124 23.4375ZM7.47485 23.4375C9.0311 23.4375 10.2874 24.6938 10.2874 26.25C10.2874 27.8063 9.0311 29.0625 7.47485 29.0625C5.9186 29.0625 4.66235 27.8063 4.66235 26.25C4.66235 25.9594 4.70923 25.6688 4.7936 25.4063C5.14985 24.2625 6.20923 23.4375 7.47485 23.4375Z" fill="#668077"/>
<path d="M0.987433 2.8125L2.39368 11.25L3.63118 18.75L4.73743 25.3875L4.79368 25.4062C5.14993 24.2625 6.20931 23.4375 7.47493 23.4375C9.03118 23.4375 10.2874 24.6938 10.2874 26.25H20.5998C20.5998 24.6938 21.8561 23.4375 23.4123 23.4375C24.9686 23.4375 26.2248 24.6938 26.2248 26.25H29.0373V17.8125C29.0373 16.875 28.0998 15.9375 27.1623 15.9375H17.7874V1.875C17.7874 1.3875 17.3281 0.9375 16.8499 0.9375H2.78743C1.53118 0.9375 0.724933 1.25625 0.987433 2.8125Z" fill="#34A853"/>
<path d="M26.25 26.25C26.25 24.6975 24.99 23.4375 23.4375 23.4375C21.885 23.4375 20.625 24.6975 20.625 26.25C20.625 27.8025 21.885 29.0625 23.4375 29.0625C24.99 29.0625 26.25 27.8025 26.25 26.25ZM26.25 26.25H29.0625V17.8125C29.0625 16.875 28.125 15.9375 27.1875 15.9375M10.3125 26.25C10.3125 24.6975 9.0525 23.4375 7.5 23.4375C5.9475 23.4375 4.6875 24.6975 4.6875 26.25C4.6875 27.8025 5.9475 29.0625 7.5 29.0625C9.0525 29.0625 10.3125 27.8025 10.3125 26.25ZM10.3125 26.25H17.8125V1.875C17.8125 1.39125 17.3578 0.9375 16.875 0.9375H2.8125C1.5525 0.9375 0.747188 1.26 1.01063 2.8125L1.875 8.4375M27.1875 15.9375H20.625M27.1875 15.9375L26.25 5.625C26.1619 4.93687 25.8103 4.6875 25.3125 4.6875H20.625M7.5 15H1.875M8.4375 18.75H2.8125M6.5625 11.25H0.9375" stroke="black" stroke-width="2" stroke-linecap="round" stroke-linejoin="round"/>
</g>
<defs>
<clipPath id="clip0_2_3043">
<rect width="30" height="30" fill="white"/>
</clipPath>
</defs>
</svg>
